<svg xmlns="http://www.w3.org/2000/svg" viewBox="0 0 93.56 186.89"><defs><style>.cls-1{fill:#fff;}.cls-2{fill:#adb0b2;}.cls-3{fill:#231f20;}.cls-4{fill:#010101;}.cls-5{fill:#1cbff1;}.cls-6{fill:none;}</style></defs><title>CSER-logo</title><g id="Layer_2" data-name="Layer 2"><g id="Layer_1-2" data-name="Layer 1"><rect class="cls-1" x="1.27" y="83.64" width="91.27" height="48.38"/><path class="cls-2" d="M42.41,116.66A2,2,0,1,1,41,113.09a2,2,0,0,1,1.43.61l-.27.27a1.7,1.7,0,1,0,0,2.41Z"/><rect class="cls-2" x="42.96" y="112.95" width="0.39" height="4.26"/><path class="cls-2" d="M44.4,113.14a.28.28,0,0,1,.3.28.28.28,0,0,1-.3.28.28.28,0,0,1-.29-.28.28.28,0,0,1,.29-.28m.19,1.31H44.2v2.76h.39Z"/><path class="cls-2" d="M45.83,117.21h-.39v-2.76h.39v.45a1,1,0,0,1,.91-.51c.66,0,1,.46,1,1.21v1.61H47.4V115.6c0-.51-.24-.82-.66-.82a.86.86,0,0,0-.91.92Z"/><path class="cls-2" d="M48.8,113.14a.28.28,0,0,1,.3.28.28.28,0,0,1-.3.28.28.28,0,0,1-.29-.28.28.28,0,0,1,.29-.28m.19,1.31H48.6v2.76H49Z"/><path class="cls-2" d="M52.06,116.89a1.41,1.41,0,0,1-1,.38,1.44,1.44,0,0,1,0-2.88,1.47,1.47,0,0,1,1,.37l-.28.28a1.06,1.06,0,1,0,0,1.57Z"/><path class="cls-2" d="M55.22,117.21h-.39v-.47a1.18,1.18,0,0,1-1,.53,1.44,1.44,0,0,1,0-2.88,1.19,1.19,0,0,1,1,.51v-.45h.39Zm-1.41-.34a1,1,0,0,0,1-1.05,1,1,0,0,0-1-1,1,1,0,0,0-1,1,1,1,0,0,0,1,1.05"/><rect class="cls-2" x="56.08" y="112.95" width="0.38" height="4.26"/><path class="cls-2" d="M59.94,116.88a.91.91,0,0,0,1-.67c.08-.5-.31-.76-.76-.86l-.54-.13c-.84-.19-.95-.68-.95-1a1.2,1.2,0,0,1,1.26-1.11,1.16,1.16,0,0,1,1.26,1.16H60.8a.79.79,0,0,0-.87-.77.81.81,0,0,0-.87.72c0,.21.07.51.64.65l.55.12c.64.15,1.17.53,1,1.31a1.3,1.3,0,0,1-1.36,1,1.27,1.27,0,0,1-1.3-1.23H59a.88.88,0,0,0,.92.84"/><path class="cls-2" d="M61.81,115.82a1.35,1.35,0,0,1,1.37-1.43,1.32,1.32,0,0,1,1.34,1.43,1,1,0,0,1,0,.18h-2.3a1,1,0,0,0,1,.88.94.94,0,0,0,.85-.48l.39.09a1.32,1.32,0,0,1-1.24.78,1.36,1.36,0,0,1-1.37-1.45m2.31-.18a.92.92,0,0,0-.94-.86,1,1,0,0,0-1,.86Z"/><path class="cls-2" d="M67.77,118.55h-.39v-1.79a1.16,1.16,0,0,1-1,.51,1.36,1.36,0,0,1-1.4-1.43,1.38,1.38,0,0,1,1.4-1.45,1.19,1.19,0,0,1,1,.54v-.48h.39Zm-1.41-1.68a1,1,0,0,0,1-1,1,1,0,0,0-1-1,1,1,0,0,0-1,1,1,1,0,0,0,1,1"/><path class="cls-2" d="M70.54,114.45h.39v2.76h-.39v-.46a1,1,0,0,1-.9.52c-.66,0-1-.46-1-1.21v-1.61H69v1.61c0,.51.24.82.66.82a.85.85,0,0,0,.9-.92Z"/><path class="cls-2" d="M71.6,115.82A1.35,1.35,0,0,1,73,114.39a1.32,1.32,0,0,1,1.34,1.43,1,1,0,0,1,0,.18H72a1,1,0,0,0,1.82.4l.39.09a1.32,1.32,0,0,1-1.24.78,1.36,1.36,0,0,1-1.37-1.45m2.31-.18a.92.92,0,0,0-.94-.86,1,1,0,0,0-1,.86Z"/><path class="cls-2" d="M75.33,117.21h-.39v-2.76h.39v.45a1,1,0,0,1,.9-.51c.67,0,1.06.46,1,1.21v1.61h-.39V115.6c0-.51-.24-.82-.66-.82a.85.85,0,0,0-.9.92Z"/><path class="cls-2" d="M80.32,116.89a1.45,1.45,0,0,1-1,.38,1.44,1.44,0,0,1,0-2.88,1.44,1.44,0,0,1,1,.37L80,115a1,1,0,0,0-.7-.26,1,1,0,0,0-1,1,1,1,0,0,0,1,1.06,1.06,1.06,0,0,0,.7-.27Z"/><path class="cls-2" d="M81.15,113.14a.28.28,0,0,1,.29.28.28.28,0,0,1-.29.28.28.28,0,0,1-.3-.28.28.28,0,0,1,.3-.28m.18,1.31H81v2.76h.38Z"/><path class="cls-2" d="M82.58,117.21h-.39v-2.76h.39v.45a1,1,0,0,1,.9-.51c.66,0,1,.46,1,1.21v1.61h-.39V115.6c0-.51-.24-.82-.66-.82a.85.85,0,0,0-.9.92Z"/><path class="cls-2" d="M85.67,117.71a1,1,0,0,0,.84.49c.63,0,1.07-.36,1.07-1.49a1.17,1.17,0,0,1-1,.56,1.44,1.44,0,0,1,0-2.88,1.2,1.2,0,0,1,1,.53v-.47H88v2.32c0,1.36-.6,1.82-1.46,1.82a1.32,1.32,0,0,1-1.17-.69Zm.88-.84a1,1,0,0,0,1-1,1,1,0,0,0-1-1,1,1,0,0,0-1,1,1,1,0,0,0,1,1"/><polygon class="cls-2" points="41.3 119.73 41.3 120.12 39.39 120.12 39.39 121.61 41.06 121.61 41.06 122 39.39 122 39.39 123.42 41.36 123.42 41.36 123.81 39.01 123.81 39.01 119.73 41.3 119.73 41.3 119.73"/><polygon class="cls-2" points="42.01 121.05 42.94 123.35 43.86 121.05 44.27 121.05 43.14 123.81 43.15 123.81 42.73 123.81 41.6 121.05 42.01 121.05"/><path class="cls-2" d="M45,119.73a.29.29,0,1,1,0,.57.29.29,0,1,1,0-.57m.19,1.32h-.38v2.76h.38Z"/><path class="cls-2" d="M48.65,123.81h-.39v-.48a1.21,1.21,0,0,1-1,.54,1.38,1.38,0,0,1-1.39-1.45A1.35,1.35,0,0,1,47.23,121a1.18,1.18,0,0,1,1,.51v-2h.39Zm-1.42-.34a1,1,0,0,0,1-1,1,1,0,0,0-1-1,1,1,0,0,0-1,1,1,1,0,0,0,1,1"/><path class="cls-2" d="M49.31,122.42A1.34,1.34,0,0,1,50.69,121,1.31,1.31,0,0,1,52,122.42v.18H49.71a1,1,0,0,0,1,.88,1,1,0,0,0,.85-.48l.39.09a1.33,1.33,0,0,1-1.24.78,1.36,1.36,0,0,1-1.38-1.45m2.32-.19a.93.93,0,0,0-.94-.85,1,1,0,0,0-1,.85Z"/><path class="cls-2" d="M53.05,123.81h-.39v-2.76h.39v.45A1,1,0,0,1,54,121c.66,0,1,.46,1,1.21v1.61h-.39V122.2c0-.51-.24-.82-.66-.82a.85.85,0,0,0-.9.92Z"/><path class="cls-2" d="M58,123.49a1.41,1.41,0,0,1-1,.38,1.4,1.4,0,0,1-1.42-1.45A1.37,1.37,0,0,1,57.05,121a1.42,1.42,0,0,1,1,.37l-.28.28a1.06,1.06,0,1,0,0,1.57Z"/><path class="cls-2" d="M58.39,122.42A1.34,1.34,0,0,1,59.76,121a1.31,1.31,0,0,1,1.34,1.43,1,1,0,0,1,0,.18H58.78a1,1,0,0,0,1,.88,1,1,0,0,0,.85-.48l.39.09a1.32,1.32,0,0,1-1.24.78,1.36,1.36,0,0,1-1.37-1.45m2.31-.19a.93.93,0,0,0-.94-.85,1,1,0,0,0-1,.85Z"/><rect class="cls-2" x="61.68" y="122.24" width="1.98" height="0.37"/><path class="cls-2" d="M68.19,121.81c0,1.38-.73,2.06-1.87,2.06a2.09,2.09,0,0,1,0-4.18,1.94,1.94,0,0,1,1.28.47l-.27.28a1.54,1.54,0,0,0-1-.36,1.7,1.7,0,0,0,0,3.4,1.29,1.29,0,0,0,1.43-1.3H66.58v-.37Z"/><path class="cls-2" d="M68.59,122.42A1.34,1.34,0,0,1,70,121a1.31,1.31,0,0,1,1.33,1.43,1,1,0,0,1,0,.18H69a1,1,0,0,0,1.83.4l.39.09a1.34,1.34,0,0,1-1.24.78,1.36,1.36,0,0,1-1.38-1.45m2.31-.19a.91.91,0,0,0-.93-.85,1,1,0,0,0-1,.85Z"/><path class="cls-2" d="M72.32,123.81h-.39v-2.76h.39v.45a1,1,0,0,1,.9-.51c.67,0,1.06.46,1,1.21v1.61h-.39V122.2c0-.51-.24-.82-.66-.82a.85.85,0,0,0-.9.92Z"/><path class="cls-2" d="M74.91,122.42A1.34,1.34,0,0,1,76.28,121a1.31,1.31,0,0,1,1.33,1.43v.18H75.3a1,1,0,0,0,1,.88,1,1,0,0,0,.85-.48l.39.09a1.32,1.32,0,0,1-1.24.78,1.36,1.36,0,0,1-1.37-1.45m2.31-.19a.93.93,0,0,0-.94-.85,1,1,0,0,0-1,.85Z"/><path class="cls-2" d="M79.81,121.48a.9.9,0,0,0-.39-.1c-.56,0-.78.67-.78,1.4v1h-.39v-2.76h.39v.62c.13-.47.38-.68.78-.68a1,1,0,0,1,.44.1Z"/><path class="cls-2" d="M82.89,123.81H82.5v-.48a1.19,1.19,0,0,1-1,.54,1.37,1.37,0,0,1-1.39-1.45A1.35,1.35,0,0,1,81.48,121a1.16,1.16,0,0,1,1,.51v-.45h.39Zm-1.41-.34a1,1,0,0,0,1-1,1,1,0,0,0-1-1,1,1,0,0,0-1,1,1,1,0,0,0,1,1"/><polygon class="cls-2" points="83.93 123.81 83.93 121.4 83.44 121.4 83.44 121.05 83.93 121.05 83.93 120.01 84.32 120.01 84.32 121.05 84.89 121.05 84.89 121.4 84.32 121.4 84.32 123.81 83.93 123.81"/><path class="cls-2" d="M85.65,119.73a.29.29,0,1,1-.3.29.29.29,0,0,1,.3-.29m.19,1.32h-.39v2.76h.39Z"/><path class="cls-2" d="M87.08,123.81h-.39v-2.76h.39v.45A1,1,0,0,1,88,121c.67,0,1.06.46,1,1.21v1.61h-.39V122.2c0-.51-.24-.82-.66-.82a.85.85,0,0,0-.9.92Z"/><path class="cls-2" d="M90.18,124.3a1,1,0,0,0,.84.49c.63,0,1.07-.36,1.06-1.49a1.15,1.15,0,0,1-1,.57,1.44,1.44,0,0,1,0-2.88,1.18,1.18,0,0,1,1,.53v-.47h.39v2.32c0,1.35-.6,1.81-1.45,1.81a1.32,1.32,0,0,1-1.17-.68Zm.88-.83a1,1,0,1,0-1-1,1,1,0,0,0,1,1"/><path class="cls-2" d="M41.65,130.4h-.47l-1.11-1.59H39.4v1.59H39v-4.07H40.5a1.25,1.25,0,0,1,0,2.48Zm-2.25-3.68v1.7h1.07a.74.74,0,0,0,.76-.84c0-.43-.2-.86-.73-.86Z"/><path class="cls-2" d="M42,129a1.34,1.34,0,0,1,1.37-1.43A1.31,1.31,0,0,1,44.75,129a1.09,1.09,0,0,1,0,.18h-2.3a1,1,0,0,0,1.82.4l.39.08a1.32,1.32,0,0,1-1.24.78A1.35,1.35,0,0,1,42,129m2.31-.19a.92.92,0,0,0-.94-.85,1,1,0,0,0-1,.85Z"/><path class="cls-2" d="M45.51,129.61a.58.58,0,0,0,.64.48c.35,0,.58-.18.58-.44s-.11-.35-.4-.42l-.37-.09a.76.76,0,0,1-.69-.9.84.84,0,0,1,.88-.65.79.79,0,0,1,.86.71h-.38a.45.45,0,0,0-.48-.34.48.48,0,0,0-.5.34c-.06.32.21.42.4.46l.37.09a.77.77,0,0,1,.69.8c0,.48-.43.81-1,.81a.91.91,0,0,1-1-.85Z"/><path class="cls-2" d="M47.57,129A1.34,1.34,0,0,1,49,127.59,1.31,1.31,0,0,1,50.28,129v.18H48a1,1,0,0,0,1,.87.94.94,0,0,0,.85-.47l.39.08a1.33,1.33,0,0,1-1.24.78A1.36,1.36,0,0,1,47.57,129m2.32-.19A.93.93,0,0,0,49,128a1,1,0,0,0-1,.85Z"/><path class="cls-2" d="M53.53,130.4h-.39v-.47a1.17,1.17,0,0,1-1,.53A1.37,1.37,0,0,1,50.73,129a1.35,1.35,0,0,1,1.39-1.43,1.15,1.15,0,0,1,1,.51v-.46h.39Zm-1.41-.33a1,1,0,0,0,1-1,1,1,0,0,0-1-1,1,1,0,0,0-1,1,1,1,0,0,0,1,1"/><path class="cls-2" d="M56,128.08a.94.94,0,0,0-.4-.1c-.55,0-.78.66-.78,1.4v1h-.39v-2.77h.39v.63c.13-.47.38-.68.78-.68a.83.83,0,0,1,.44.1Z"/><path class="cls-2" d="M58.63,130.09a1.44,1.44,0,0,1-2.4-1.07,1.39,1.39,0,0,1,1.42-1.44,1.43,1.43,0,0,1,1,.38l-.28.27a1.05,1.05,0,0,0-.7-.25,1,1,0,0,0-1,1,1,1,0,0,0,1.74.79Z"/><path class="cls-2" d="M59.65,130.4h-.39v-4.25h.39v1.95a1,1,0,0,1,.9-.51c.67,0,1.06.46,1.05,1.21v1.61h-.39V128.8c0-.51-.24-.82-.66-.82a.85.85,0,0,0-.9.92Z"/><path class="cls-3" d="M49.34,109a7.46,7.46,0,0,1-5.11,1.94,7.2,7.2,0,0,1-7.38-7.42,7.13,7.13,0,0,1,7.38-7.34A7.5,7.5,0,0,1,49.31,98l-1.42,1.43a5.55,5.55,0,0,0-3.66-1.34,5.18,5.18,0,0,0-5.38,5.34,5.25,5.25,0,0,0,5.38,5.42,5.46,5.46,0,0,0,3.66-1.36Z"/><path class="cls-3" d="M53.48,106.53A3,3,0,0,0,56.81,109c1.81,0,3-.91,3-2.24,0-.94-.54-1.82-2-2.18l-2-.46c-1.75-.42-3.93-1.3-3.57-4.6.3-2,2.3-3.37,4.6-3.37s4.08,1.06,4.44,3.67h-2a2.37,2.37,0,0,0-2.48-1.73,2.46,2.46,0,0,0-2.63,1.73c-.31,1.64,1.09,2.12,2.08,2.36l1.94.46c2.66.63,3.57,2.18,3.57,4.12,0,2.45-2.24,4.15-5.17,4.15a4.72,4.72,0,0,1-4.93-4.36Z"/><path class="cls-3" d="M64.67,103.46a6.93,6.93,0,0,1,7.14-7.33c4,0,6.92,2.85,6.92,7.33,0,.31,0,.67,0,.94h-12a5.14,5.14,0,0,0,9.49,2c.6.16,1.39.31,2,.46a6.9,6.9,0,0,1-6.44,4c-4,0-7.14-2.94-7.14-7.43m12-.93a4.76,4.76,0,0,0-4.86-4.4,4.94,4.94,0,0,0-5.08,4.4Z"/><path class="cls-3" d="M90.61,98.65a5,5,0,0,0-2-.49c-2.88,0-4.06,3.4-4.06,7.15v5.28h-2V96.43h2v3.22c.7-2.43,2-3.52,4.06-3.52a4.48,4.48,0,0,1,2.29.55Z"/><path class="cls-4" d="M16.18,183.22c-5.84-3.53-13.35-8.73-10.53-16.53C8.34,159.23,17,156,22.79,151.53c4.46-3.39,8.76-8.56,8-14.53-.84-6.41-5.85-11.26-10.81-14.89-5.61-4.1-15.41-7.84-15-16.24.4-7.45,9-12.12,14.5-15.55,5.24-3.3,10.58-8,11.33-14.55.68-5.94-3.85-11.39-8-15a49.09,49.09,0,0,0-6.62-4.67c-2.76-1.66-1.71,2.32-.14,3.27,5.84,3.52,13.34,8.73,10.53,16.52-2.7,7.46-11.33,10.74-17.15,15.17C5,94.46.66,99.64,1.45,105.61,2.29,112,7.3,116.87,12.27,120.5c5.61,4.1,15.4,7.83,15,16.24-.4,7.45-9,12.11-14.49,15.55-5.24,3.3-10.59,8.05-11.34,14.54-.68,5.95,3.86,11.4,8,15A47,47,0,0,0,16,186.48c2.75,1.67,1.7-2.32.14-3.26"/><path class="cls-1" d="M18.49,153.06c-4.6-2.77-13.3-8.29-12.14-14.9.41-2.31,2.64-4.13,4.36-5.51,3.5-2.8,7.57-4.75,11.08-7.56,5.37-4.3,10-10.3,10.4-17.42.37-6.82-4.86-12-9.94-15.72C16.48,87.72,7.91,84.33,6.38,76.44c-1.16-6,8.43-10,12.25-12.55,6-4,11.48-9.68,13.19-16.89,1.55-6.5-1.83-11.91-6.46-16.14A43.09,43.09,0,0,0,18.49,26c-2.83-1.7-7.64,6.51-4.76,8.25C18.32,37,27,42.5,25.86,49.11c-.41,2.31-2.64,4.13-4.36,5.51-3.5,2.8-7.57,4.75-11.08,7.56C5.05,66.48.4,72.48,0,79.6c-.37,6.82,4.87,12,9.94,15.72,5.78,4.22,14.34,7.62,15.87,15.51,1.16,6-8.42,10-12.24,12.55-6,4-11.48,9.68-13.2,16.89-1.55,6.5,1.84,11.91,6.46,16.14a43.17,43.17,0,0,0,6.88,4.9c2.82,1.71,7.63-6.51,4.76-8.25"/><path class="cls-5" d="M7.76,129.84A2.16,2.16,0,1,0,9.92,132a2.16,2.16,0,0,0-2.16-2.16"/><path class="cls-5" d="M10.38,127.43a2.14,2.14,0,1,0,2.13,2.14,2.14,2.14,0,0,0-2.13-2.14"/><path class="cls-5" d="M13.59,125.07a2.11,2.11,0,1,0,2.1,2.1,2.11,2.11,0,0,0-2.1-2.1"/><path class="cls-5" d="M17.35,122.75a2.08,2.08,0,1,0,2.08,2.08,2.08,2.08,0,0,0-2.08-2.08"/><path class="cls-5" d="M20.86,120.41a2,2,0,1,0,2.05,2,2,2,0,0,0-2.05-2"/><path class="cls-5" d="M23.77,118a2,2,0,1,0,2,2,2,2,0,0,0-2-2"/><path class="cls-5" d="M26.08,115.59a2,2,0,1,0,2,2,2,2,0,0,0-2-2"/><path class="cls-5" d="M27.78,113.13a2,2,0,1,0,2,2,2,2,0,0,0-2-2"/><path class="cls-5" d="M28.86,110.65a1.94,1.94,0,1,0,1.94,1.94,1.93,1.93,0,0,0-1.94-1.94"/><path class="cls-5" d="M29.32,108.15a1.91,1.91,0,1,0,1.91,1.91,1.9,1.9,0,0,0-1.91-1.91"/><path class="cls-5" d="M29.14,105.63A1.89,1.89,0,1,0,31,107.52a1.89,1.89,0,0,0-1.88-1.89"/><path class="cls-5" d="M28.31,103.11A1.86,1.86,0,1,0,30.17,105a1.85,1.85,0,0,0-1.86-1.86"/><path class="cls-5" d="M26.83,100.6a1.83,1.83,0,1,0,1.83,1.82,1.82,1.82,0,0,0-1.83-1.82"/><path class="cls-5" d="M24.69,98.09a1.8,1.8,0,1,0,1.8,1.8,1.8,1.8,0,0,0-1.8-1.8"/><path class="cls-5" d="M21.88,95.6a1.77,1.77,0,1,0,1.77,1.77,1.78,1.78,0,0,0-1.77-1.77"/><path class="cls-5" d="M18.39,93.13a1.75,1.75,0,1,0,1.74,1.74,1.74,1.74,0,0,0-1.74-1.74"/><path class="cls-5" d="M14.38,90.68A1.72,1.72,0,1,0,16.1,92.4a1.72,1.72,0,0,0-1.72-1.72"/><path class="cls-5" d="M10.89,88.21a1.69,1.69,0,1,0,1.69,1.69,1.69,1.69,0,0,0-1.69-1.69"/><path class="cls-5" d="M8.08,85.72a1.66,1.66,0,1,0,1.66,1.66,1.66,1.66,0,0,0-1.66-1.66"/><path class="cls-5" d="M5.94,83.21a1.64,1.64,0,1,0,1.63,1.64,1.63,1.63,0,0,0-1.63-1.64"/><path class="cls-5" d="M4.46,80.69a1.61,1.61,0,1,0,1.6,1.61,1.61,1.61,0,0,0-1.6-1.61"/><path class="cls-1" d="M7.26,101.44c4.66-7.28,13.66-9.76,19.4-16,1.63-1.68-2.48-6.52-3.93-5-6.14,6.29-15,9-19.93,16.65-1.11,1.75,3.11,6.45,4.46,4.32"/><path class="cls-4" d="M5,106.66c.25-7.84,8.38-12.51,14.23-16.15,5.53-3.45,11.59-8.68,11.67-15.74a3.94,3.94,0,0,0-1.72-2.92c-.58-.41-1.86-.8-1.87.34-.08,7.55-7.74,12.45-13.47,15.89s-12.2,8.73-12.43,16c-.05,1.55,3.52,4.76,3.59,2.58"/><rect class="cls-6" x="1.27" y="83.64" width="50.28" height="48.38"/><rect class="cls-6" x="2.95" width="90.62" height="53.15"/></g></g></svg>