<?xml version="1.0" encoding="utf-8"?>
<!-- Generator: Adobe Illustrator 19.2.0, SVG Export Plug-In . SVG Version: 6.00 Build 0)  -->
<svg version="1.1" id="Layer_1" xmlns="http://www.w3.org/2000/svg" xmlns:xlink="http://www.w3.org/1999/xlink" x="0px" y="0px"
	 viewBox="0 0 1920 1081" style="enable-background:new 0 0 1920 1081;" xml:space="preserve">
<style type="text/css">
	.st0{fill:#F8C09D;}
	.st1{fill:#1A1A1A;}
	.st2{fill:#443833;}
	.st3{fill:#F2F2F2;}
	.st4{fill:#44A0C1;}
	.st5{fill:#FFFFFF;}
	.st6{fill:#703B21;}
	.st7{fill:#F6AE8D;}
	.st8{fill:#EF937E;}
	.st9{fill:none;stroke:#91A89D;stroke-width:2.9104;stroke-miterlimit:10;}
	.st10{fill:none;stroke:#91A89D;stroke-width:2.9104;stroke-linecap:round;stroke-miterlimit:10;}
	.st11{fill:#E26C60;}
	.st12{fill:#333333;}
	.st13{fill:none;stroke:#FFFFFF;stroke-width:2.4831;stroke-miterlimit:10;}
	.st14{fill:none;stroke:#1A1A1A;stroke-width:4.9663;stroke-miterlimit:10;}
	.st15{fill:none;stroke:#1A1A1A;stroke-width:5.6022;stroke-miterlimit:10;}
	.st16{fill:#CCCCCC;}
	.st17{fill:#E6E6E6;}
	.st18{fill:none;stroke:#808080;stroke-width:2.4076;stroke-linecap:round;stroke-miterlimit:10;}
	.st19{fill:#738891;}
</style>
<polygon class="st0" points="973.8,923.4 994.8,923.4 1040.8,581.4 973.8,581.4 "/>
<polygon class="st0" points="953.7,923.4 932.7,923.4 893.6,581.4 959.8,581.4 "/>
<path class="st0" d="M953.7,923.4l10,44.8c0,0-1,14.9-12.6,14.9s-13.9-11.3-15.9-21.4c-1.9-10-2.5-38.3-2.5-38.3H953.7z"/>
<path class="st1" d="M928.1,933.8c0.1,1.2-3.2,35.3-1.3,35.3c2.9,0,5.9,0,5.9,0s-3.5-31.4-2.3-35.3
	C931.6,930,928.1,933.8,928.1,933.8z"/>
<path class="st2" d="M961.5,958.8c-3.9-2.7-5.7-2.5-11.5-1.4c-5.8,1.1-10.3,4.3-13.4,6.3c-3.1,1.9-1.5-11.3-1.8-22.3
	s-2.1-17.9-2.1-17.9l-0.4-3.8c0,0-5.5,2.7-4.5,10.8c1,8.1,3.2,30.5,2.9,40.2s13.9,14.5,26.2,14.8c12.3,0.3,11.7-3.2,11.1-9.5
	C967.2,969.8,965.4,961.5,961.5,958.8z"/>
<path class="st0" d="M994.8,923.4l10,44.8c0,0-1,14.9-12.6,14.9c-11.7,0-13.9-11.3-15.9-21.4c-1.9-10-2.5-38.3-2.5-38.3H994.8z"/>
<path class="st1" d="M969.2,933.8c0.1,1.2-3.2,35.3-1.3,35.3c2.9,0,5.9,0,5.9,0s-3.5-31.4-2.3-35.3
	C972.7,930,969.2,933.8,969.2,933.8z"/>
<path class="st2" d="M1002.6,958.8c-3.9-2.7-5.7-2.5-11.5-1.4c-5.8,1.1-10.3,4.3-13.4,6.3c-3.1,1.9-1.5-11.3-1.8-22.3
	s-2.1-17.9-2.1-17.9l-0.4-3.8c0,0-5.5,2.7-4.5,10.8c1,8.1,3.2,30.5,2.9,40.2c-0.3,9.7,13.9,14.5,26.2,14.8
	c12.3,0.3,11.7-3.2,11.1-9.5C1008.3,969.8,1006.5,961.5,1002.6,958.8z"/>
<path class="st3" d="M901.5,505.9l-15.9-110.2c0-17.5,10.8-31.6,24.2-31.6h103.5c13.4,0,24.2,14.1,24.2,31.5l-14.1,106.4
	c0,0,25.6,81.8,25.6,115.1s0,145,0,145H877c0,0,0-114.5,0-145S901.5,505.9,901.5,505.9z"/>
<path class="st3" d="M867.5,372.3c0,0,12-8.1,40.4-8.7c18.1-0.3-20.5,27.7-20.5,27.7L867.5,372.3z"/>
<path class="st3" d="M998.7,355.3c0,0,45.8-2.9,53.3,13c7.1,15.1-16.6,23.1-16.6,23.1L998.7,355.3z"/>
<polygon class="st0" points="941.3,355.3 946,398.8 989.2,398.8 992.5,355.3 "/>
<path class="st4" d="M946,389.3c0,0,12.9,9.5,27.8,9.5s17.7-9.5,17.7-9.5L980,453L946,389.3z"/>
<polygon class="st5" points="992.5,355.3 980,453 1011.4,389.8 1003.4,382 1013.6,371.4 "/>
<polygon class="st5" points="941.3,355.3 980,453 922.4,389.8 930.4,382 920.2,371.4 "/>
<path class="st3" d="M942.8,446.5h-19.8c-3.7,0-6.7-3-6.7-6.7v-4.3h33.3v4.3C949.5,443.5,946.5,446.5,942.8,446.5z"/>
<path class="st3" d="M1057.2,515.2L1057.2,515.2c-10.1,1.5-19.5-5.4-21-15.4L1017.7,379c-1.5-10.1-2.4-23.6,8.1-22.4
	c22.6,2.5,26.3,12.4,29.5,27.1l17.4,110.4C1074.2,504.2,1067.3,513.6,1057.2,515.2z"/>
<path class="st3" d="M847.7,521L847.7,521c-9.8-2.6-15.7-12.7-13.1-22.6l31.3-118c2.6-9.8,12.7-15.7,22.6-13.1h0
	c9.8,2.6,15.7,12.7,13.1,22.6l-31.3,118C867.7,517.8,857.6,523.6,847.7,521z"/>
<path class="st3" d="M1043.8,512.3L1043.8,512.3c-7.8-6.6-8.7-18.3-2.1-26l67.3-79l28.1,23.9l-67.3,79
	C1063.2,517.9,1051.5,518.9,1043.8,512.3z"/>
<circle class="st6" cx="901.7" cy="301.8" r="32.3"/>
<path class="st6" d="M873.2,229.9c-3,27.8,6.6,56.6,38.5,81.1c36.4,27.9,89.9,1,111.4-19.8c21.5-20.8,44.1-79.2,16.5-121l-148.9,3.4
	C890.8,173.6,877.2,193.5,873.2,229.9z"/>
<path class="st0" d="M991.5,352.9c0,13.4-10.9,24.5-24.3,24.5h0H967c-13.4,0-24.5-11.1-24.5-24.5v-24.6h49V352.9z"/>
<path class="st7" d="M942.5,344.6c8.4,4.3,16.6,8.2,23.9,8.2c7.6,0,16.4-1.4,25.1-5.8v-16h-49V344.6z"/>
<path class="st0" d="M968.8,343.2c-28,0-64-40-64-67v-91.8H1040v91.8C1040,304.6,1015.5,343.2,968.8,343.2z"/>
<circle class="st0" cx="902.1" cy="263.8" r="17.7"/>
<path class="st8" d="M898.6,266.3c0-3.5,2.8-6.3,6.3-6.3c1,0,1.9,0.2,2.7,0.6c-1.1-1.8-3.1-3.1-5.4-3.1c-3.5,0-6.3,2.8-6.3,6.3
	c0,2.5,1.5,4.7,3.6,5.7C898.9,268.6,898.6,267.5,898.6,266.3z"/>
<path class="st6" d="M1012.5,200.7c0,0-30.3,17.7-55.3,22.9c-26.7,5.6-50.8,1.2-50.8,1.2s-35.3-21.6-12.9-55
	c34.3-51.2,118.9-32.8,140.3-8.2c22.4,25.9,8.8,68,8.8,68s-5.4-0.5-13.9-10.1C1018.4,207.9,1012.5,200.7,1012.5,200.7z"/>
<path class="st9" d="M968.9,269.5h-30.5c-4.6,0-8.3-3.7-8.3-8.3v-13.5c0-4.6,3.7-8.3,8.3-8.3h30.5c4.6,0,8.3,3.7,8.3,8.3v13.5
	C977.2,265.8,973.5,269.5,968.9,269.5z"/>
<path class="st9" d="M1030.5,269.5H1000c-4.6,0-8.3-3.7-8.3-8.3v-13.5c0-4.6,3.7-8.3,8.3-8.3h30.5c4.6,0,8.3,3.7,8.3,8.3v13.5
	C1038.9,265.8,1035.1,269.5,1030.5,269.5z"/>
<path class="st9" d="M977.2,254.4c0,0.4,3-3.2,7.5-3.2c4.5,0,7,3.4,7,3.4"/>
<line class="st10" x1="902.1" y1="246.1" x2="930" y2="254.6"/>
<path class="st11" d="M971.1,298.9c0,9,7.3,15.3,16.3,15.3h0c9,0,16.3-6.3,16.3-15.3"/>
<path class="st8" d="M983.5,285.7c0,0.6,0.7,1.1,1.4,1.1h7.9c2.2,0,3.3-2.5,2-4.2l-9.2-11c-0.7-0.8-2.1-0.3-2.1,0.7"/>
<ellipse class="st12" cx="958.3" cy="254.6" rx="4.7" ry="8.3"/>
<ellipse class="st12" cx="1017.6" cy="254.6" rx="4.7" ry="8.3"/>
<polygon class="st4" points="994.3,763 977.1,689.6 960.5,763 "/>
<rect x="877.8" y="762.3" transform="matrix(-1 -4.489399e-11 4.489399e-11 -1 1926.9928 1550.1846)" class="st4" width="171.5" height="25.6"/>
<g>
	<path class="st13" d="M1006.4,459.3l10.5,1.2c6.8-0.4,11-11.4,10.3-26.7l-2-30.8c-0.1-10.9-6.5-19.8-15.1-20.8l-0.5-0.1
		c-8.6-1-16.8,6.2-19.4,16.9l-9.4,31.2c-5.7,15.8,0.6,26.2,5.6,26.7l8.8,1"/>
	<path class="st14" d="M1026.4,421.8l-1.2-18.6c-1.1-11.7-6.5-19.6-15.1-20.6l-0.5-0.1c-8.6-1-15.5,6.4-19.3,16.7l-5.4,17.9"/>
	<path d="M993,454.2l-2.8-0.3c-2-0.2-3.8,1.2-4,3.2l-0.1,0.5c-0.2,2,1.2,3.8,3.2,4l2.8,0.3c2,0.2,3.8-1.2,4-3.2l0.1-0.5
		C996.5,456.2,995,454.4,993,454.2z"/>
	<path d="M1011.6,456.3l-2.8-0.3c-2-0.2-3.8,1.2-4,3.2l-0.1,0.5c-0.2,2,1.2,3.8,3.2,4l2.8,0.3c2,0.2,3.8-1.2,4-3.2l0.1-0.5
		C1015,458.4,1013.6,456.6,1011.6,456.3z"/>
	<path class="st15" d="M991.7,352.8L991.7,352.8c7.6-1.2,15.5,10.5,17.4,21.4l0.4,2.9l0.8,5.5"/>
	<path class="st15" d="M943.3,355L943.3,355c-7.7-2-24.3,12.7-22.6,41.2c1.3,22.2,6.3,36.3,6.3,36.3"/>
	
		<ellipse transform="matrix(0.2499 -0.9683 0.9683 0.2499 274.2182 1227.8661)" class="st5" cx="929.6" cy="437" rx="12.9" ry="12.9"/>
	<ellipse transform="matrix(0.2499 -0.9683 0.9683 0.2499 274.2182 1227.8661)" cx="929.6" cy="437" rx="8.1" ry="8.1"/>
	
		<ellipse transform="matrix(0.2499 -0.9683 0.9683 0.2499 274.2182 1227.8661)" class="st16" cx="929.6" cy="437" rx="5.1" ry="5.1"/>
</g>
<g>
	<path class="st7" d="M1003.8,447.8c0,0,9-2,12.2,3.4c3.1,5.4-4.2,8.5-4.2,8.5L1003.8,447.8z"/>
	<g>
		<path class="st12" d="M1021.8,466.8c0,0-8.7-9.1-14.9-12.4c-6.3-3.3-10.5,5.3-4.5,8.5c6,3.2,18.7,5.5,18.7,5.5
			C1022.3,468.7,1022.9,467.6,1021.8,466.8z"/>
		<path class="st17" d="M936.2,422.1L936.2,422.1c0.6-1.2,0.2-2.6-1-3.3l-6.9-3.7c-1.2-0.6-2.6-0.2-3.3,1l0,0
			c-0.6,1.2-0.2,2.6,1,3.3l6.9,3.7C934.2,423.7,935.6,423.3,936.2,422.1z"/>
		
			<rect x="963" y="397.3" transform="matrix(-0.4706 0.8824 -0.8824 -0.4706 1810.5826 -208.4808)" class="st12" width="9.7" height="83.4"/>
		<polyline class="st18" points="940,418.6 934,429.9 963.6,445.6 		"/>
		<path class="st12" d="M1021,465.9c0.6,0.6,0.9,0.9,0.9,0.9c1,0.9,0.5,1.9-0.8,1.6c0,0-0.4-0.1-1.2-0.2L1021,465.9z"/>
	</g>
	<path class="st0" d="M970.5,441.6c0,0,12.7-4.8,20.7,0.5c8,5.3,12.1,8.2,12.1,8.2l-1.5,5.3l0,0c1.6,1.5,1.8,4,0.3,5.6l-0.1,0.1
		c-1.5,1.6-4,1.7-5.6,0.3l-0.1-0.1l0,0c0.7,2.2-0.3,4.6-2.3,5.7l-0.6,0.3c-1.9,1-4.2,0.5-5.5-1.2l0,0l0,0c1,1,1.7,5.3-3.2,6.1
		c-2.3,0.4-5,0.9-9.7,0.8l0,0l-11.1-1.8L970.5,441.6z"/>
	<path class="st0" d="M950.7,451.4c6.9-2.4,16-11.7,17.9-14.2c1.9-2.5,5.8-2.2,11-2.1c5.9,0.2,10.3,0,13.6,1.8
		c4.8,2.6,17.2,15.2,18.8,16.9c3.9,3.8-2,8.7-7.3,5.4c-4.5-2.9-15.4-13.6-15.4-13.6l-10.6-0.4c0,0-8,9.3-5.6,12.9
		c2.5,3.5,3.5,3.2,3.5,3.2l3.1,9c0,0-10.8,4.9-18,5.3c-8.5,0.4-22.8,5.2-22.8,5.2l0.6-22.7C939.6,458,945.4,453.3,950.7,451.4z"/>
</g>
<path class="st3" d="M834.7,509.1L834.7,509.1c-3.5-9.6,1.4-20.2,11-23.7l97.4-35.7l12.7,34.6l-97.4,35.7
	C848.8,523.6,838.2,518.7,834.7,509.1z"/>
<path class="st19" d="M1093.8,500l-89.7-2.1c-4.9,0.2-8-5.3-5.3-9.5l66.7-101.2c1.1-1.7,2.9-2.7,4.9-2.7l92.3,2
	c4.9-0.2,8,5.3,5.3,9.5l-65.3,99C1100.7,498,1097.4,499.9,1093.8,500z"/>
<g>
	<path class="st0" d="M1128.1,470l-8.1-1.2c-3.5-0.5-5.9-3.8-5.4-7.3l14.4-26.1c0.5-3.5,3.8-5.9,7.3-5.4l8.1,1.2
		c3.7,0.5,6.3,4,5.7,7.7l-14.3,25.3C1133.9,468.1,1131.8,470.6,1128.1,470z"/>
	<path class="st0" d="M1144.3,436.3L1144.3,436.3c-0.4,2.8-3,4.7-5.7,4.3l-23-3.4c-2.8-0.4-4.7-3-4.3-5.7l0,0c0.4-2.8,3-4.7,5.7-4.3
		l23,3.4C1142.8,431,1144.7,433.6,1144.3,436.3z"/>
	<path class="st0" d="M1138.3,445.7L1138.3,445.7c-0.4,2.8-3,4.7-5.7,4.3l-23-3.4c-2.8-0.4-4.7-3-4.3-5.7v0c0.4-2.8,3-4.7,5.7-4.3
		l23,3.4C1136.8,440.4,1138.7,442.9,1138.3,445.7z"/>
	<path class="st0" d="M1139.3,456.1L1139.3,456.1c-0.4,2.8-3,4.7-5.7,4.3l-23-3.4c-2.8-0.4-4.7-3-4.3-5.7l0,0c0.4-2.8,3-4.7,5.7-4.3
		l23,3.4C1137.8,450.7,1139.7,453.3,1139.3,456.1z"/>
	<path class="st0" d="M1134.2,465.7L1134.2,465.7c-0.4,2.8-3,4.7-5.7,4.3l-15.7-2.4c-2.8-0.4-4.7-3-4.3-5.7l0,0
		c0.4-2.8,3-4.7,5.7-4.3l15.7,2.4C1132.7,460.3,1134.6,462.9,1134.2,465.7z"/>
</g>
</svg>
