<svg xmlns="http://www.w3.org/2000/svg" viewBox="0 0 219.33 46.13"><defs><style>.cls-1{fill:#e6e6e6;}.cls-2{fill:#999;}</style></defs><title>GD-Logo</title><g id="Layer_2" data-name="Layer 2"><g id="Layer_1-2" data-name="Layer 1"><path class="cls-1" d="M134.91,34.1a13.11,13.11,0,0,0,5.54-6.56l0-.09h0a9.67,9.67,0,0,0,.4-1.44,6.83,6.83,0,0,0-2.26-7,32.72,32.72,0,0,0-6.13-3.75c-1-.52-1.69-.81-2.9-1.54l-2.55,1.43a20.86,20.86,0,0,0,2.22,1.28l-4.16,0a4.29,4.29,0,0,0-1,1.07,4.87,4.87,0,0,0-.44,1.25l9.84,0h0l.11,0a29,29,0,0,1,3.14,2.14,4.44,4.44,0,0,1,.73.77l-15.7-.09h0a1.32,1.32,0,0,0-.44.08,7.21,7.21,0,0,1,.12-2.06,7.81,7.81,0,0,1,3.73-5.11A51.46,51.46,0,0,1,132.49,11a64.1,64.1,0,0,0,7.18-3.33,13.65,13.65,0,0,0,5.41-5.21A1,1,0,0,0,144.61,1a1.53,1.53,0,0,0-1.73.71,10.68,10.68,0,0,1-1.22,1.67,1.14,1.14,0,0,0-.49-.11L125,3.14h0c.12-.54,1.79-3.23-.76-3.14-.66,0-1.38,2.3-1.63,2.92-.1.25-2.07,5.25.46,8.65l2.32-1.25a2.3,2.3,0,0,1-.45-.84l1.95-.06,6.53-2.19-9-.06a8.84,8.84,0,0,1,.08-1.74h.08L139,5.53l-.31.19a59,59,0,0,1-6.84,3.18,54,54,0,0,0-7.67,3.68,10.76,10.76,0,0,0-5.15,7,8,8,0,0,0,2.63,8.15,32.61,32.61,0,0,0,5,3c1.29.68,2,1,3.29,1.76L132.54,31a44.93,44.93,0,0,0-4.3-2.39L128,28.5l9.4.06a10.27,10.27,0,0,1-3.58,3.69A51.86,51.86,0,0,1,127.93,35c-4,1.68-8.47,3.58-11.09,6A10.84,10.84,0,0,0,115,43.2a1,1,0,0,0,.41,1.49,1,1,0,0,0,.44.08,1.56,1.56,0,0,0,1.3-.73,8.89,8.89,0,0,1,.85-1.12l16.76.1c-.09.55-1,2.89.84,3.1h.16c.61,0,1.23-2.42,1.43-3,.07-.2,1.72-5.12-.4-8.36-.62.54-2.29,1.34-2.24,1.43a7.84,7.84,0,0,1,.7,4.42l-14.09-.08c.68-.4,1.41-.79,2.18-1.16l.15,0h9.79l-.67-2.32-4.23,0,.21-.09A54.37,54.37,0,0,0,134.91,34.1ZM124,26.22c-.17-.13-.36-.25-.51-.37a5.87,5.87,0,0,1-1.49-2l16.09.09h0a1.77,1.77,0,0,0,.32,0,6.31,6.31,0,0,1,0,2.07c0,.1-.07.19-.09.29Z"/><path class="cls-2" d="M0,23C0,16.3,4.41,10,12.3,10c4.44,0,7.29,2.55,8.1,5.31l-3,1.14A5.4,5.4,0,0,0,12,13.09c-5.52,0-8.46,4.86-8.46,9.69,0,4,2.16,6.33,5.76,6.33a7.29,7.29,0,0,0,7.29-6H10.68l.42-2.85h9.45l-.39,2.43A10.78,10.78,0,0,1,9.06,32.2C4.11,32.2,0,29.26,0,23Z"/><path class="cls-2" d="M24.69,25.66v.12c0,2.22,1.08,3.66,3.51,3.66a9.13,9.13,0,0,0,5-1.8L34.38,30a11.43,11.43,0,0,1-6.66,2.22c-3.72,0-6.15-2.31-6.15-6,0-4.17,3-9.69,9.24-9.69,2.85,0,5.28,1.5,5.28,4.44,0,2-1.2,4.77-5.43,4.77Zm.39-2.28h5.58A2.34,2.34,0,0,0,33.15,21c0-1.2-.93-2.07-2.64-2.07C27.75,19,25.86,21,25.08,23.38Z"/><path class="cls-2" d="M52.89,20.17a10.32,10.32,0,0,1-.18,1.8l-1.77,9.87H47.61l1.65-9.18A9.46,9.46,0,0,0,49.47,21c0-1.14-.54-1.68-1.8-1.68a10.07,10.07,0,0,0-5.1,2L40.71,31.84H37.38l2.64-15h3.15l-.3,1.8A10.79,10.79,0,0,1,49,16.45C51.3,16.45,52.89,17.62,52.89,20.17Z"/><path class="cls-2" d="M55.14,26a10,10,0,0,1,.18-1.86c.84-4.68,4.14-7.71,8.52-7.71,4.17,0,6.24,2.55,6.24,6.12a14.11,14.11,0,0,1-.15,1.89c-.78,4.65-4.05,7.71-8.55,7.71C57.3,32.17,55.14,29.59,55.14,26Zm11.58-1.89a10.1,10.1,0,0,0,.15-1.56c0-2.1-1-3.36-3.21-3.36-2.67,0-4.5,1.83-5.16,5.28a10.47,10.47,0,0,0-.15,1.59c0,2.13,1,3.33,3.21,3.33C64.29,29.41,66.09,27.49,66.72,24.13Z"/><path class="cls-2" d="M97.26,20.11a9.75,9.75,0,0,1-.15,1.47L95.28,31.84H92l1.74-9.75a8.55,8.55,0,0,0,.12-1.2c0-1.17-.75-1.62-1.86-1.62A8.67,8.67,0,0,0,87,21.34L85.2,31.84H81.87l1.74-9.9a7,7,0,0,0,.12-1.05c0-1.17-.63-1.65-1.8-1.65-1.71,0-3.39,1.05-5,2.25L75.12,31.84H71.79l2.64-15h3.15l-.36,2.1a9.9,9.9,0,0,1,6-2.49c1.89,0,3.33.78,3.75,2.46a10.26,10.26,0,0,1,6.18-2.46C95.61,16.45,97.26,17.59,97.26,20.11Z"/><path class="cls-2" d="M102.57,25.66v.12c0,2.22,1.08,3.66,3.51,3.66a9.13,9.13,0,0,0,5-1.8L112.26,30a11.43,11.43,0,0,1-6.66,2.22c-3.72,0-6.15-2.31-6.15-6,0-4.17,3-9.69,9.24-9.69,2.85,0,5.28,1.5,5.28,4.44,0,2-1.2,4.77-5.43,4.77Zm.39-2.28h5.58A2.34,2.34,0,0,0,111,21c0-1.2-.93-2.07-2.64-2.07C105.63,19,103.74,21,103,23.38Z"/><path class="cls-2" d="M150.54,11.83a1.63,1.63,0,0,1,1.74-1.41h5.88c5.43,0,8.7,3.75,8.7,8.73,0,6.06-3.84,12.69-11.85,12.69h-8Zm4.14,17c5.34,0,8.76-4.44,8.76-9.72,0-3.57-2.13-5.76-5.67-5.76h-4.11L151,28.87Z"/><path class="cls-2" d="M170.67,16.84H174l-2.7,15H168Zm.33-3.75a2.28,2.28,0,0,1,2.31-2.4,1.65,1.65,0,0,1,1.8,1.71,2.28,2.28,0,0,1-2.34,2.43A1.6,1.6,0,0,1,171,13.09Z"/><path class="cls-2" d="M191.49,16.84,183.72,30.7a2.38,2.38,0,0,1-2.4,1.32c-1.29,0-1.92-.42-2.13-1.41l-2.88-13.77h3.48l2,11.88L188,16.84Z"/><path class="cls-2" d="M194.19,25.66v.12c0,2.22,1.08,3.66,3.51,3.66a9.13,9.13,0,0,0,5-1.8L203.88,30a11.43,11.43,0,0,1-6.66,2.22c-3.72,0-6.15-2.31-6.15-6,0-4.17,3-9.69,9.24-9.69,2.85,0,5.28,1.5,5.28,4.44,0,2-1.2,4.77-5.43,4.77Zm.39-2.28h5.58A2.34,2.34,0,0,0,202.65,21c0-1.2-.93-2.07-2.64-2.07C197.25,19,195.36,21,194.58,23.38Z"/><path class="cls-2" d="M219.33,16.9l-1.05,2.7a4.34,4.34,0,0,0-1.56-.3,7.58,7.58,0,0,0-4.71,2l-1.86,10.56h-3.27l2.64-15h3.18l-.3,1.74a7.5,7.5,0,0,1,4.92-2.13A4.31,4.31,0,0,1,219.33,16.9Z"/></g></g></svg>