<svg xmlns="http://www.w3.org/2000/svg" viewBox="0 0 9.41 18.79"><defs><style>.cls-1{isolation:isolate;}.cls-2{fill:#bdccd4;mix-blend-mode:overlay;}</style></defs><title>Helix</title><g class="cls-1"><g id="Layer_2" data-name="Layer 2"><g id="Layer_1-2" data-name="Layer 1"><path class="cls-2" d="M7.63,14.22a4.27,4.27,0,0,0,1.72-2.81s0,0,0,0h0a4.07,4.07,0,0,0,.05-.61,3.63,3.63,0,0,0-1.49-3A17.06,17.06,0,0,0,5.13,6.14a14.64,14.64,0,0,1-1.31-.66L2.9,6.1c.49.29.62.35,1,.55l-1.69,0a1.5,1.5,0,0,0-.31.46,1.91,1.91,0,0,0-.08.53l4,0h0a14.61,14.61,0,0,1,1.45.91,2.82,2.82,0,0,1,.36.33l-6.38,0h0a.47.47,0,0,0-.17,0A3.3,3.3,0,0,1,1,8,2.67,2.67,0,0,1,2.11,5.8,17.06,17.06,0,0,1,4.78,4.31,20.83,20.83,0,0,0,7.42,2.89,4.35,4.35,0,0,0,9.19.65.47.47,0,0,0,8.88,0a.5.5,0,0,0-.64.3,3.73,3.73,0,0,1-.36.72A.54.54,0,0,0,7.67,1L1.1,1h0A.47.47,0,0,0,.69.47.51.51,0,0,0,.1.86,4.72,4.72,0,0,0,1,4.57L1.83,4a1.67,1.67,0,0,1-.25-.36l.79,0,2.47-.94-3.67,0a4.42,4.42,0,0,1-.11-.74h0L7,2l-.11.08A17.84,17.84,0,0,1,4.34,3.42,17.31,17.31,0,0,0,1.53,5,3.61,3.61,0,0,0,0,8a4.27,4.27,0,0,0,1.73,3.49A18.18,18.18,0,0,0,4,12.76c.58.29.92.43,1.48.75l.92-.61c-.7-.43-1.2-.65-1.94-1l-.11-.06,3.82,0A3.22,3.22,0,0,1,7,13.42,16.15,16.15,0,0,1,4.87,14.6a12.54,12.54,0,0,0-4,2.57,3.56,3.56,0,0,0-.56.95.5.5,0,0,0,.29.64.57.57,0,0,0,.18,0,.51.51,0,0,0,.47-.31A2.19,2.19,0,0,1,1.5,18l6.81,0a.48.48,0,0,0,.43.47h.07a.51.51,0,0,0,.5-.43,5.24,5.24,0,0,0-.84-3.58c-.21.23-.83.57-.8.61A4,4,0,0,1,8.32,17L2.59,17c.24-.17.51-.34.79-.5h4L7,15.5l-1.72,0,.08,0A15.9,15.9,0,0,0,7.63,14.22Zm-5-3.38-.24-.16a3.33,3.33,0,0,1-.76-.83l6.54,0h0a.27.27,0,0,0,.12,0,3.26,3.26,0,0,1,.16.89c0,.05,0,.09,0,.13Z"/></g></g></g></svg>